<svg width="15" height="15" viewBox="0 0 15 15" fill="none" xmlns="http://www.w3.org/2000/svg">
<g clip-path="url(#clip0_113_212)">
<path d="M14.9134 3.13392C14.8276 3.01086 14.6894 2.93479 14.5393 2.92838L5.23468 2.52731C4.96771 2.51563 4.74462 2.72174 4.73321 2.98746C4.72186 3.25309 4.92763 3.47752 5.19332 3.48894L13.868 3.86289L12.1624 9.18457H4.57215L3.20086 1.71799C3.17071 1.55434 3.05836 1.41782 2.90341 1.35703L0.65747 0.47469C0.409939 0.377779 0.130619 0.499363 0.0334061 0.746592C-0.0636392 0.993955 0.0579108 1.27344 0.305308 1.37066L2.30231 2.15518L3.6978 9.75281C3.73986 9.98121 3.93892 10.1471 4.17124 10.1471H4.40273L3.87413 11.6154C3.82989 11.7384 3.84812 11.875 3.92341 11.9818C3.9986 12.0887 4.12089 12.1523 4.25144 12.1523H4.6222C4.39246 12.4079 4.25144 12.7446 4.25144 13.1148C4.25144 13.911 4.89927 14.5587 5.69527 14.5587C6.49127 14.5587 7.1391 13.911 7.1391 13.1148C7.1391 12.7446 6.99808 12.4079 6.76837 12.1523H9.91629C9.68645 12.4079 9.54546 12.7446 9.54546 13.1148C9.54546 13.911 10.1931 14.5587 10.9893 14.5587C11.7855 14.5587 12.4331 13.911 12.4331 13.1148C12.4331 12.7446 12.2921 12.4079 12.0625 12.1523H12.5133C12.7349 12.1523 12.9144 11.9727 12.9144 11.7512C12.9144 11.5297 12.7349 11.3501 12.5133 11.3501H4.82209L5.25519 10.147H12.5133C12.7226 10.147 12.9078 10.0118 12.9716 9.81263L14.9769 3.55597C15.0229 3.41317 14.9993 3.25705 14.9134 3.13392ZM5.6953 13.7567C5.34139 13.7567 5.05358 13.4689 5.05358 13.115C5.05358 12.7611 5.34139 12.4733 5.6953 12.4733C6.04921 12.4733 6.33699 12.7611 6.33699 13.115C6.33699 13.4689 6.04921 13.7567 5.6953 13.7567ZM10.9893 13.7567C10.6354 13.7567 10.3476 13.4689 10.3476 13.115C10.3476 12.7611 10.6354 12.4733 10.9893 12.4733C11.3432 12.4733 11.631 12.7611 11.631 13.115C11.631 13.4689 11.3432 13.7567 10.9893 13.7567Z" fill="#E85128"/>
</g>
<defs>
<clipPath id="clip0_113_212">
<rect width="15" height="15" fill="white"/>
</clipPath>
</defs>
</svg>
